<svg viewBox="0 0 400 400" xmlns="http://www.w3.org/2000/svg">
  <!-- Ice cube robot logo -->
  <defs>
    <linearGradient id="iceGradient" x1="0%" y1="0%" x2="100%" y2="100%">
      <stop offset="0%" style="stop-color:#E6F7FF;stop-opacity:1" />
      <stop offset="50%" style="stop-color:#87CEEB;stop-opacity:1" />
      <stop offset="100%" style="stop-color:#4A90E2;stop-opacity:1" />
    </linearGradient>
  </defs>
  
  <!-- Main ice cube body -->
  <rect x="50" y="80" width="300" height="240" rx="30" ry="30" 
        fill="url(#iceGradient)" stroke="#2E5BBA" stroke-width="8"/>
  
  <!-- Robot face -->
  <!-- Eyes -->
  <circle cx="150" cy="180" r="25" fill="#1E3A8A"/>
  <circle cx="250" cy="180" r="25" fill="#1E3A8A"/>
  <circle cx="155" cy="175" r="8" fill="#87CEEB"/>
  <circle cx="255" cy="175" r="8" fill="#87CEEB"/>
  
  <!-- Mouth/grille -->
  <rect x="170" y="220" width="60" height="20" rx="10" ry="10" 
        fill="none" stroke="#1E3A8A" stroke-width="4"/>
  <line x1="180" y1="220" x2="180" y2="240" stroke="#1E3A8A" stroke-width="2"/>
  <line x1="190" y1="220" x2="190" y2="240" stroke="#1E3A8A" stroke-width="2"/>
  <line x1="200" y1="220" x2="200" y2="240" stroke="#1E3A8A" stroke-width="2"/>
  <line x1="210" y1="220" x2="210" y2="240" stroke="#1E3A8A" stroke-width="2"/>
  <line x1="220" y1="220" x2="220" y2="240" stroke="#1E3A8A" stroke-width="2"/>
  
  <!-- Ice bubbles -->
  <circle cx="100" cy="120" r="8" fill="#FFFFFF" opacity="0.7"/>
  <circle cx="320" cy="140" r="12" fill="#FFFFFF" opacity="0.5"/>
  <circle cx="280" cy="280" r="6" fill="#FFFFFF" opacity="0.8"/>
  <circle cx="120" cy="260" r="10" fill="#FFFFFF" opacity="0.6"/>
  
  <!-- Antenna -->
  <rect x="195" y="60" width="10" height="30" fill="#1E3A8A"/>
  <circle cx="200" cy="50" r="8" fill="#FF6B6B"/>
</svg> 